<svg width="374" height="378" viewBox="0 0 374 378" fill="none" xmlns="http://www.w3.org/2000/svg">
  <path d="M280.5 222.258V118.486C280.5 107.93 271.937 99.3735 261.375 99.3735H194.321C186.106 99.3735 179.446 92.7181 179.446 84.5083C179.446 76.2985 186.106 69.6431 194.321 69.6431H261.375C288.368 69.6431 310.25 91.5108 310.25 118.486V222.258C346.561 229.206 374 261.114 374 299.427C374 342.822 338.798 378 295.375 378C251.952 378 216.75 342.822 216.75 299.427C216.75 261.114 244.189 229.206 280.5 222.258ZM63.75 155.742C27.4391 148.794 0 116.886 0 78.573C0 35.1783 35.2016 0 78.625 0C122.048 0 157.25 35.1783 157.25 78.573C157.25 116.886 129.811 148.794 93.5 155.742V358.888C93.5 367.097 86.8402 373.753 78.625 373.753C70.4098 373.753 63.75 367.097 63.75 358.888V155.742ZM78.625 127.416C105.618 127.416 127.5 105.548 127.5 78.573C127.5 51.598 105.618 29.7303 78.625 29.7303C51.6321 29.7303 29.75 51.598 29.75 78.573C29.75 105.548 51.6321 127.416 78.625 127.416ZM295.375 348.27C322.368 348.27 344.25 326.402 344.25 299.427C344.25 272.452 322.368 250.584 295.375 250.584C268.382 250.584 246.5 272.452 246.5 299.427C246.5 326.402 268.382 348.27 295.375 348.27Z" fill="currentColor"/>
</svg>
