<svg width="420" height="84" viewBox="0 0 420 84" fill="none" xmlns="http://www.w3.org/2000/svg">
  <path d="M3.42009 0.333008H43.3886C57.0043 0.442812 68.0945 11.533 68.0945 25.1486C68.0945 38.7643 56.8945 49.9643 43.2788 49.9643H24.8318C20.1103 49.9643 16.2671 53.8074 16.2671 58.6388V80.0505C16.2671 81.8074 14.7299 83.3446 12.8632 83.3446C10.9965 83.3446 9.5691 81.8074 9.5691 80.0505V58.6388C9.5691 50.1839 16.3769 43.2663 24.8318 43.2663H43.2788C53.271 43.2663 61.3965 35.1408 61.3965 25.1486C61.3965 15.1565 53.271 7.03103 43.169 7.03103H6.824V25.1486C6.824 27.0153 5.28675 28.4428 3.42009 28.4428C1.66323 28.4428 0.125977 27.0153 0.125977 25.1486V3.62712C0.125977 1.87026 1.66323 0.333008 3.42009 0.333008ZM43.2788 9.77613C51.7337 9.77613 58.6514 16.6938 58.6514 25.1486C58.6514 33.6035 51.7337 40.4114 43.2788 40.4114H24.9416C14.9495 40.4114 6.824 48.5368 6.824 58.529V80.0505C6.824 81.8074 5.28675 83.3446 3.42009 83.3446C1.66323 83.3446 0.125977 81.8074 0.125977 80.0505V58.529C0.125977 44.8035 11.2162 33.7133 24.9416 33.7133H43.3886C48.1102 33.7133 51.9533 29.8702 51.9533 25.1486C51.9533 20.3173 48.1102 16.4742 43.2788 16.4742C41.522 16.4742 39.9847 15.0467 39.9847 13.18C39.9847 11.3134 41.522 9.77613 43.2788 9.77613ZM80.1729 0.333008H120.141C133.757 0.442812 144.737 11.6428 144.737 25.2585C144.737 37.9957 134.965 48.5368 122.557 49.8545L142.432 69.6192C145.396 72.5839 145.396 78.074 142.432 81.0387C139.467 84.0034 134.306 84.223 131.232 81.1485C128.377 78.1838 117.396 67.3133 117.396 67.3133C116.079 65.9956 116.079 63.9094 117.396 62.5917C118.714 61.2741 120.8 61.2741 122.118 62.5917L135.734 76.2074C136.283 76.7564 137.161 76.8662 137.71 76.3172C138.259 75.7682 138.369 74.9995 137.71 74.3407L112.236 48.9761C111.577 48.3172 111.247 47.5486 111.247 46.6702C111.247 44.8035 112.785 43.2663 114.651 43.2663H119.922C129.914 43.2663 138.149 35.1408 138.149 25.1486C138.149 15.1565 129.914 7.03103 119.922 7.03103H83.5768V25.1486C83.5768 27.0153 82.0396 28.4428 80.1729 28.4428C78.3062 28.4428 76.8788 27.0153 76.8788 25.1486V3.62712C76.8788 1.87026 78.3062 0.333008 80.1729 0.333008ZM120.032 9.77613C128.487 9.77613 135.404 16.6938 135.404 25.1486C135.404 33.6035 128.487 40.4114 120.032 40.4114H101.694C91.7023 40.4114 83.5768 48.5368 83.5768 58.529V80.0505C83.5768 81.8074 82.0396 83.3446 80.1729 83.3446C78.3062 83.3446 76.8788 81.8074 76.8788 80.0505V58.529C76.8788 44.8035 87.969 33.7133 101.694 33.7133H120.032C124.863 33.7133 128.706 29.8702 128.706 25.1486C128.706 20.3173 124.863 16.4742 120.032 16.4742C118.165 16.4742 116.738 15.0467 116.738 13.18C116.738 11.3134 118.165 9.77613 120.032 9.77613ZM169.553 45.4623H174.275C178.667 45.4623 182.181 49.0859 182.181 53.478C182.181 57.8702 178.667 61.6035 174.275 61.6035H156.816C154.949 61.6035 153.522 60.0662 153.522 58.1996C153.522 56.4427 154.949 54.9055 156.816 54.9055H174.055C174.824 54.9055 175.483 54.2466 175.483 53.478C175.483 52.7094 174.824 52.1604 174.055 52.1604H169.553C167.796 52.1604 166.259 50.6231 166.259 48.7564C166.259 46.8898 167.796 45.4623 169.553 45.4623Z" fill="currentColor"/>
  <path d="M193.225 83.36C192.323 83.36 191.549 82.5865 191.549 81.684V4.45858C191.549 3.55611 192.323 2.78256 193.225 2.78256H224.038C232.547 2.78256 238.22 4.5875 243.248 8.32629C250.21 13.3543 253.046 22.8947 249.823 31.0169C248.147 35.1425 245.311 37.3342 241.443 39.397C246.987 40.1705 250.468 43.7804 252.53 46.3589C255.496 50.2266 257.043 54.8678 257.043 60.2826C257.043 67.3735 254.206 73.175 248.792 77.3006C243.506 81.2972 236.286 83.36 227.39 83.36H193.225ZM210.501 32.3061H223.136C225.714 32.3061 227.777 31.7904 229.195 30.6301C230.484 29.4698 231.129 27.9227 231.129 25.8599C231.129 23.9261 230.484 22.379 229.195 21.3476C227.906 20.1873 225.972 19.6716 223.651 19.6716H210.501V32.3061ZM210.501 67.5024H225.585C229.453 67.5024 232.418 66.7288 234.61 65.1818C236.544 63.7636 237.575 61.8297 237.575 59.1223C237.575 56.6728 236.544 54.8678 234.61 53.4497C232.547 52.0315 229.711 51.258 226.101 51.258H210.501V67.5024ZM311.449 83.36C303.713 83.36 296.622 81.5551 290.434 77.9452C284.117 74.3353 279.089 69.1784 275.35 62.99C271.74 56.6728 269.935 49.453 269.935 41.7176C269.935 34.1111 271.74 27.0203 275.35 20.703C279.089 14.3857 283.988 9.35768 290.305 5.74781C296.622 2.13794 303.713 0.333008 311.449 0.333008C319.055 0.333008 326.146 2.13794 332.463 5.74781C338.781 9.35768 343.809 14.3857 347.418 20.703C351.157 27.0203 352.962 34.1111 352.962 41.7176C352.962 49.453 351.157 56.5438 347.418 62.8611C343.809 69.1784 338.781 74.2064 332.463 77.9452C326.146 81.5551 319.055 83.36 311.449 83.36ZM311.707 64.795C315.445 64.795 318.926 63.7636 322.02 61.8297C325.244 59.7669 327.822 57.0595 329.627 53.4497C331.561 49.9687 332.463 45.9721 332.463 41.7176C332.463 37.592 331.561 33.5954 329.627 30.1144C327.822 26.6335 325.244 23.9261 322.02 21.8633C318.926 19.9294 315.445 18.8981 311.707 18.8981C307.839 18.8981 304.358 19.9294 301.135 21.8633C297.783 23.9261 295.204 26.6335 293.27 30.1144C291.337 33.7243 290.434 37.592 290.434 41.7176C290.434 45.9721 291.337 49.9687 293.27 53.4497C295.333 56.9306 297.912 59.7669 301.135 61.7008C304.358 63.7636 307.839 64.795 311.707 64.795ZM381.583 83.36C380.681 83.36 380.036 82.5865 380.036 81.684V20.8319H362.374C361.471 20.8319 360.698 20.1873 360.698 19.2848V4.45858C360.698 3.55611 361.471 2.78256 362.374 2.78256H417.682C418.713 2.78256 419.358 3.55611 419.358 4.45858V19.2848C419.358 20.1873 418.713 20.8319 417.682 20.8319H400.019V81.684C400.019 82.5865 399.246 83.36 398.343 83.36H381.583Z" fill="currentColor"/>
</svg>
