<svg width="423" height="146" viewBox="0 0 423 146" fill="none" xmlns="http://www.w3.org/2000/svg">
  <path d="M6.52356 122.759L14.8493 122.759C16.2949 122.759 17.5353 122.241 18.5704 121.206C19.5877 120.189 20.0964 118.958 20.0964 117.512C20.0964 116.048 19.5877 114.799 18.5704 113.764C17.5353 112.729 16.2949 112.211 14.8493 112.211H6.52356V122.759ZM6.52356 144.711L0.714355 144.711V106.401H14.8496C17.9015 106.401 20.5072 107.49 22.6668 109.667C24.8442 111.826 25.9329 114.441 25.9329 117.511C25.9329 120.563 24.8442 123.168 22.6668 125.328C20.5073 127.487 17.9015 128.567 14.8496 128.567H6.52383L6.52356 144.711ZM36.1324 122.759V112.211H44.4581C45.9037 112.211 47.1441 112.729 48.1792 113.764C49.1965 114.799 49.7052 116.048 49.7052 117.512C49.7052 118.957 49.1965 120.189 48.1792 121.206C47.1441 122.242 45.9037 122.759 44.4581 122.759L36.1324 122.759ZM48.7949 127.685C50.7938 126.828 52.4091 125.49 53.6405 123.669C54.9077 121.813 55.5413 119.761 55.5413 117.512C55.5413 114.442 54.4526 111.828 52.2752 109.668C50.1157 107.491 47.51 106.402 44.458 106.402H30.3228V144.713H36.132V128.57H42.6909L51.0701 144.713H57.6291L48.7949 127.685ZM82.6872 135.234C80.0101 132.557 78.6716 129.327 78.6716 125.543C78.6716 121.76 80.0102 118.529 82.6872 115.852C85.3643 113.157 88.5948 111.81 92.3784 111.81C94.6986 111.81 96.8671 112.363 98.8836 113.469V107.098C96.7776 106.366 94.609 106 92.3784 106C86.9886 106 82.384 107.91 78.5644 111.729C74.7449 115.548 72.8356 120.153 72.8356 125.543C72.8356 130.933 74.7452 135.538 78.5644 139.357C82.3837 143.177 86.9884 145.086 92.3784 145.086C94.6093 145.086 96.7777 144.711 98.8836 143.962V137.617C96.8669 138.705 94.6984 139.25 92.3784 139.25C88.5948 139.25 85.3644 137.911 82.6872 135.234ZM111.519 115.853C108.842 118.53 107.504 121.761 107.504 125.544C107.504 129.328 108.842 132.558 111.519 135.235C114.196 137.913 117.427 139.251 121.211 139.251C124.994 139.251 128.225 137.912 130.902 135.235C133.579 132.558 134.917 129.328 134.917 125.544C134.917 121.761 133.579 118.53 130.902 115.853C128.225 113.176 124.994 111.837 121.211 111.837C117.427 111.837 114.197 113.176 111.519 115.853ZM107.397 139.357C103.577 135.538 101.668 130.933 101.668 125.543C101.668 120.153 103.577 115.549 107.397 111.729C111.216 107.91 115.821 106 121.211 106C126.601 106 131.205 107.91 135.025 111.729C138.844 115.548 140.753 120.153 140.753 125.543C140.753 130.933 138.844 135.538 135.025 139.357C131.205 143.177 126.601 145.086 121.211 145.086C115.821 145.086 111.216 143.176 107.397 139.357ZM150.927 138.929L155.21 138.929C158.886 138.929 162.036 137.617 164.66 134.993C167.266 132.388 168.569 129.246 168.569 125.57C168.569 121.875 167.266 118.725 164.66 116.12C162.037 113.496 158.886 112.185 155.21 112.185H150.927V138.929ZM145.144 144.711V106.401H155.21C160.493 106.401 165.008 108.275 168.756 112.023C172.486 115.771 174.351 120.286 174.351 125.569C174.351 130.834 172.486 135.34 168.756 139.088C165.008 142.836 160.492 144.71 155.21 144.71L145.144 144.711ZM179.197 106.401V144.711H198.74V138.902H185.006V128.408H195.607V122.599H185.006V112.211H198.74V106.402L179.197 106.401ZM222.512 122.759V112.211H230.838C232.284 112.211 233.524 112.729 234.559 113.764C235.576 114.799 236.085 116.048 236.085 117.512C236.085 118.957 235.576 120.189 234.559 121.206C233.524 122.242 232.284 122.759 230.838 122.759L222.512 122.759ZM235.175 127.685C237.174 126.828 238.789 125.49 240.02 123.669C241.288 121.813 241.921 119.761 241.921 117.512C241.921 114.442 240.832 111.828 238.655 109.668C236.496 107.491 233.89 106.402 230.838 106.402H216.703V144.713H222.512V128.57H229.071L237.45 144.713H244.009L235.175 127.685ZM247.302 106.401V144.711H266.845V138.902H253.111V128.408H263.713V122.599H253.111V112.211H266.845V106.402L247.302 106.401ZM271.343 106.401V144.711H278.464L301.032 106.401H294.285L277.179 135.448V106.401H271.343ZM310.428 106.456H304.619V144.711H310.428V106.456ZM316.773 106.401V144.711H336.316V138.902H322.582V128.408H333.184V122.599H322.582V112.211H336.316V106.402L316.773 106.401ZM341.268 106.401V144.711H348.39L365.362 115.878V144.711H372.484L395.052 106.401H388.305L371.199 135.448V106.401H364.185L347.078 135.448V106.401H341.268ZM408.49 145.059C405.956 144.952 403.618 144.274 401.476 143.025C399.049 141.615 397.398 139.723 396.524 137.349L401.985 135.341C402.431 136.519 403.351 137.474 404.743 138.206C405.974 138.83 407.313 139.179 408.758 139.25C410.989 139.339 412.836 138.795 414.3 137.617C415.531 136.617 416.183 135.475 416.254 134.19C416.361 131.745 413.8 129.791 408.571 128.327C400.379 126.025 396.408 122.125 396.658 116.628C396.819 112.773 398.469 109.891 401.611 107.981C404.002 106.518 406.876 105.866 410.231 106.027C414.3 106.205 417.566 107.624 420.029 110.283L415.772 114.246C414.38 112.746 412.444 111.943 409.963 111.836C408.214 111.765 406.724 111.988 405.492 112.505C403.565 113.326 402.556 114.79 402.467 116.896C402.36 119.305 404.921 121.242 410.15 122.705C414.862 124.026 418.2 125.971 420.163 128.541C421.519 130.326 422.153 132.298 422.063 134.458C421.921 137.491 420.546 140.061 417.941 142.168C415.513 144.113 412.604 145.086 409.213 145.086C408.963 145.086 408.723 145.077 408.49 145.059Z" fill="currentColor"/>
  <path d="M6.26477 0.857422H45.8765C59.3706 0.966245 70.3617 11.9574 70.3617 25.4515C70.3617 38.9456 59.2617 50.0456 45.7676 50.0456H27.4853C22.8059 50.0456 18.9971 53.8544 18.9971 58.6426V79.8632C18.9971 81.6043 17.4736 83.1279 15.6236 83.1279C13.7736 83.1279 12.3589 81.6043 12.3589 79.8632V58.6426C12.3589 50.2632 19.1059 43.4073 27.4853 43.4073H45.7676C55.6706 43.4073 63.7235 35.3544 63.7235 25.4515C63.7235 15.5486 55.6706 7.49564 45.6588 7.49564H9.6383V25.4515C9.6383 27.3015 8.11477 28.7162 6.26477 28.7162C4.5236 28.7162 3.00007 27.3015 3.00007 25.4515V4.12212C3.00007 2.38095 4.5236 0.857422 6.26477 0.857422ZM45.7676 10.2162C54.147 10.2162 61.0029 17.0721 61.0029 25.4515C61.0029 33.8309 54.147 40.5779 45.7676 40.5779H27.5941C17.6912 40.5779 9.6383 48.6309 9.6383 58.5338V79.8632C9.6383 81.6043 8.11477 83.1279 6.26477 83.1279C4.5236 83.1279 3.00007 81.6043 3.00007 79.8632V58.5338C3.00007 44.9309 13.9912 33.9397 27.5941 33.9397H45.8765C50.5559 33.9397 54.3647 30.1309 54.3647 25.4515C54.3647 20.6633 50.5559 16.8545 45.7676 16.8545C44.0265 16.8545 42.5029 15.4397 42.5029 13.5898C42.5029 11.7398 44.0265 10.2162 45.7676 10.2162ZM82.3323 0.857422H121.944C135.438 0.966245 146.32 12.0662 146.32 25.5603C146.32 38.1838 136.635 48.6309 124.338 49.9367L144.035 69.5249C146.973 72.4632 146.973 77.9043 144.035 80.8426C141.097 83.7808 135.982 83.9984 132.935 80.9514C130.106 78.0132 119.223 67.2397 119.223 67.2397C117.918 65.9338 117.918 63.8661 119.223 62.5602C120.529 61.2544 122.597 61.2544 123.903 62.5602L137.397 76.0544C137.941 76.5985 138.812 76.7073 139.356 76.1632C139.9 75.6191 140.009 74.8573 139.356 74.2044L114.109 49.0662C113.456 48.4132 113.129 47.6515 113.129 46.7809C113.129 44.9309 114.653 43.4073 116.503 43.4073H121.726C131.629 43.4073 139.791 35.3544 139.791 25.4515C139.791 15.5486 131.629 7.49564 121.726 7.49564H85.7058V25.4515C85.7058 27.3015 84.1823 28.7162 82.3323 28.7162C80.4823 28.7162 79.0676 27.3015 79.0676 25.4515V4.12212C79.0676 2.38095 80.4823 0.857422 82.3323 0.857422ZM121.835 10.2162C130.215 10.2162 137.07 17.0721 137.07 25.4515C137.07 33.8309 130.215 40.5779 121.835 40.5779H103.662C93.7587 40.5779 85.7058 48.6309 85.7058 58.5338V79.8632C85.7058 81.6043 84.1823 83.1279 82.3323 83.1279C80.4823 83.1279 79.0676 81.6043 79.0676 79.8632V58.5338C79.0676 44.9309 90.0587 33.9397 103.662 33.9397H121.835C126.623 33.9397 130.432 30.1309 130.432 25.4515C130.432 20.6633 126.623 16.8545 121.835 16.8545C119.985 16.8545 118.57 15.4397 118.57 13.5898C118.57 11.7398 119.985 10.2162 121.835 10.2162ZM170.914 45.5838H175.594C179.947 45.5838 183.429 49.175 183.429 53.5279C183.429 57.8808 179.947 61.5808 175.594 61.5808H158.291C156.441 61.5808 155.026 60.0573 155.026 58.2073C155.026 56.4661 156.441 54.9426 158.291 54.9426H175.376C176.138 54.9426 176.791 54.2897 176.791 53.5279C176.791 52.7662 176.138 52.222 175.376 52.222H170.914C169.173 52.222 167.65 50.6985 167.65 48.8485C167.65 46.9985 169.173 45.5838 170.914 45.5838Z" fill="currentColor"/>
  <path d="M194.375 83.1431C193.481 83.1431 192.714 82.3765 192.714 81.4821V4.94616C192.714 4.05175 193.481 3.28511 194.375 3.28511H224.913C233.346 3.28511 238.968 5.07392 243.951 8.77934C250.851 13.7625 253.662 23.2177 250.468 31.2674C248.807 35.3561 245.996 37.5282 242.162 39.5726C247.657 40.3392 251.107 43.9169 253.151 46.4723C256.09 50.3055 257.623 54.9053 257.623 60.2718C257.623 67.2993 254.812 73.0491 249.445 77.1378C244.207 81.0988 237.052 83.1431 228.235 83.1431H194.375ZM211.497 32.5451H224.019C226.574 32.5451 228.619 32.034 230.024 30.884C231.302 29.7341 231.941 28.2008 231.941 26.1564C231.941 24.2399 231.302 22.7066 230.024 21.6844C228.746 20.5344 226.83 20.0233 224.53 20.0233H211.497V32.5451ZM211.497 67.4271H226.446C230.28 67.4271 233.218 66.6604 235.39 65.1272C237.307 63.7217 238.329 61.8051 238.329 59.1218C238.329 56.6942 237.307 54.9053 235.39 53.4998C233.346 52.0943 230.535 51.3277 226.957 51.3277H211.497V67.4271ZM311.543 83.1431C303.877 83.1431 296.849 81.3543 290.716 77.7767C284.455 74.199 279.472 69.0881 275.767 62.955C272.189 56.6942 270.4 49.5389 270.4 41.8725C270.4 34.3339 272.189 27.3064 275.767 21.0455C279.472 14.7847 284.327 9.80152 290.588 6.22388C296.849 2.64624 303.877 0.857422 311.543 0.857422C319.082 0.857422 326.109 2.64624 332.37 6.22388C338.631 9.80152 343.614 14.7847 347.192 21.0455C350.897 27.3064 352.686 34.3339 352.686 41.8725C352.686 49.5389 350.897 56.5664 347.192 62.8272C343.614 69.0881 338.631 74.0713 332.37 77.7767C326.109 81.3543 319.082 83.1431 311.543 83.1431ZM311.799 64.7438C315.504 64.7438 318.954 63.7217 322.02 61.8051C325.215 59.7607 327.77 57.0775 329.559 53.4998C331.476 50.05 332.37 46.089 332.37 41.8725C332.37 37.7838 331.476 33.8228 329.559 30.3729C327.77 26.9231 325.215 24.2399 322.02 22.1955C318.954 20.2789 315.504 19.2567 311.799 19.2567C307.965 19.2567 304.516 20.2789 301.321 22.1955C297.999 24.2399 295.444 26.9231 293.527 30.3729C291.611 33.9506 290.716 37.7838 290.716 41.8725C290.716 46.089 291.611 50.05 293.527 53.4998C295.571 56.9497 298.127 59.7607 301.321 61.6773C304.516 63.7217 307.965 64.7438 311.799 64.7438ZM381.052 83.1431C380.157 83.1431 379.518 82.3765 379.518 81.4821V21.1733H362.013C361.119 21.1733 360.352 20.5344 360.352 19.64V4.94616C360.352 4.05175 361.119 3.28511 362.013 3.28511H416.828C417.85 3.28511 418.489 4.05175 418.489 4.94616V19.64C418.489 20.5344 417.85 21.1733 416.828 21.1733H399.323V81.4821C399.323 82.3765 398.556 83.1431 397.662 83.1431H381.052Z" fill="currentColor"/>
</svg>
